<?xml version="1.0" standalone="no"?>
<!DOCTYPE svg PUBLIC "-//W3C//DTD SVG 20010904//EN"
 "http://www.w3.org/TR/2001/REC-SVG-20010904/DTD/svg10.dtd">
<svg version="1.0" xmlns="http://www.w3.org/2000/svg"
 width="483.000000pt" height="483.000000pt" viewBox="0 0 483.000000 483.000000"
 preserveAspectRatio="xMidYMid meet">
<metadata>
Created by potrace 1.14, written by Peter Selinger 2001-2017
</metadata>
<g transform="translate(0.000000,483.000000) scale(0.100000,-0.100000)"
fill="#000000" stroke="none">
<path d="M2296 4823 c-2 -2 -138 -13 -203 -17 -13 0 -23 -4 -23 -7 0 -3 -10
-5 -22 -4 -13 1 -27 0 -33 -4 -5 -3 -21 -7 -35 -7 -14 -1 -25 -3 -25 -4 0 -2
-33 -10 -60 -14 -11 -2 -37 -8 -57 -14 -20 -5 -39 -7 -42 -4 -3 3 -6 0 -6 -7
0 -7 -6 -11 -12 -8 -7 2 -24 0 -38 -6 -29 -12 -50 -18 -67 -19 -7 -1 -13 -4
-13 -8 0 -3 -10 -6 -22 -7 -11 -1 -24 -6 -27 -10 -3 -4 -12 -9 -18 -10 -7 -2
-19 -4 -25 -5 -7 -2 -15 -5 -18 -8 -6 -6 -110 -50 -125 -53 -5 -1 -16 -8 -23
-15 -8 -7 -17 -10 -22 -7 -5 3 -10 2 -12 -2 -1 -5 -25 -19 -53 -32 -27 -13
-69 -37 -92 -53 -24 -16 -43 -26 -43 -23 0 4 -17 -7 -39 -24 -21 -17 -41 -28
-45 -24 -3 3 -6 1 -6 -5 0 -6 -26 -27 -57 -46 -32 -20 -53 -36 -48 -36 4 0
-11 -13 -36 -30 -24 -16 -66 -50 -93 -75 -26 -25 -53 -45 -58 -45 -5 0 -7 -4
-3 -9 3 -5 -4 -12 -14 -16 -11 -3 -23 -14 -26 -24 -3 -10 -17 -24 -30 -31 -14
-7 -25 -17 -25 -22 0 -4 -16 -24 -35 -43 -56 -59 -125 -141 -125 -151 0 -5 -9
-16 -20 -24 -11 -8 -20 -19 -20 -25 0 -6 -12 -24 -28 -41 -15 -18 -28 -38 -30
-45 -2 -8 -7 -16 -10 -19 -14 -10 -62 -90 -55 -90 5 0 3 -4 -3 -8 -6 -4 -23
-29 -38 -57 -15 -27 -31 -57 -36 -65 -10 -16 -63 -132 -65 -140 -1 -3 -9 -22
-18 -43 -36 -83 -77 -205 -79 -234 -1 -7 -5 -13 -9 -13 -5 0 -6 -7 -3 -15 4
-8 1 -15 -6 -15 -6 0 -9 -4 -6 -9 4 -5 1 -22 -5 -38 -6 -15 -13 -41 -15 -58
-5 -37 -12 -70 -14 -70 -1 0 -3 -9 -4 -20 -2 -11 -7 -40 -11 -65 -10 -59 -15
-106 -19 -156 -1 -22 -6 -46 -10 -52 -4 -7 -3 -12 3 -12 7 0 7 -9 3 -22 -7
-20 -9 -214 -2 -228 1 -3 1 -9 0 -15 -5 -23 -5 -75 0 -75 3 0 6 -30 8 -67 1
-37 7 -73 13 -80 9 -10 8 -13 -1 -13 -8 0 -9 -6 -5 -17 4 -10 9 -29 11 -43 2
-14 5 -36 9 -50 7 -33 15 -80 18 -105 1 -11 5 -22 9 -25 3 -3 8 -19 11 -35 2
-17 6 -37 10 -45 5 -12 35 -113 43 -142 1 -5 3 -10 4 -13 1 -3 3 -9 4 -14 0
-5 4 -13 8 -17 5 -4 8 -16 8 -26 0 -10 4 -18 10 -18 5 0 9 -3 8 -7 -1 -5 4
-24 11 -43 8 -19 15 -37 16 -40 13 -42 149 -296 175 -328 8 -10 16 -25 18 -32
2 -8 13 -22 24 -32 12 -10 18 -18 14 -18 -7 0 95 -137 151 -202 74 -86 265
-269 339 -324 22 -16 40 -32 42 -36 2 -5 8 -8 13 -8 5 0 20 -10 35 -23 14 -12
27 -20 28 -17 1 3 14 -7 30 -23 15 -15 32 -25 37 -22 5 4 9 1 9 -4 0 -6 6 -11
14 -11 8 0 16 -4 18 -9 6 -17 308 -174 336 -174 6 0 12 -5 12 -10 0 -6 3 -8 6
-4 4 3 20 -1 36 -9 17 -9 37 -17 46 -19 10 -3 44 -14 77 -25 33 -12 68 -22 78
-23 9 -1 17 -5 17 -9 0 -4 9 -5 20 -3 11 2 20 -1 20 -6 0 -5 6 -9 13 -7 11 2
44 -4 107 -18 14 -3 34 -7 45 -8 11 -2 20 -5 20 -6 0 -3 60 -10 103 -12 17 -1
32 -4 32 -8 0 -8 531 -5 580 4 19 3 49 8 65 11 17 2 41 7 55 10 26 5 52 11
104 20 16 3 37 10 46 15 10 5 20 7 23 4 3 -3 14 -1 25 5 10 5 30 12 43 15 77
17 119 30 119 37 0 4 18 10 40 14 22 4 40 11 40 16 0 5 3 8 8 7 4 -1 23 5 42
14 19 8 37 15 40 14 5 0 76 35 110 55 8 5 35 19 60 31 25 12 47 26 48 30 2 5
8 6 13 2 5 -3 9 -1 9 4 0 9 50 37 63 34 4 -1 7 2 7 6 0 5 33 30 73 57 109 74
188 138 275 222 30 29 58 53 63 53 5 0 9 4 9 10 0 5 15 24 33 42 34 36 102
114 165 193 4 6 23 33 42 60 19 28 38 52 43 53 4 2 7 10 7 18 0 8 4 14 9 14 5
0 13 10 17 23 4 12 9 24 13 27 10 8 31 43 44 73 6 15 14 27 18 27 4 0 10 11
13 25 4 14 11 25 17 25 6 0 8 4 4 9 -3 5 2 17 11 25 8 9 13 16 10 16 -4 0 4
19 16 42 12 24 22 46 23 50 0 3 3 10 8 14 4 4 7 16 7 26 0 10 5 18 10 18 6 0
10 7 10 16 0 9 6 30 14 47 29 67 45 115 39 121 -4 3 -2 6 4 6 5 0 10 6 10 13
0 7 7 37 16 67 10 30 19 66 21 80 3 14 5 25 6 25 2 0 10 37 12 63 1 12 5 22 8
22 3 0 6 10 7 23 0 12 3 40 7 62 3 22 9 63 13 90 10 66 9 536 -2 600 -4 28 -8
62 -9 78 0 15 -4 27 -8 27 -4 0 -5 7 -2 15 4 8 2 21 -4 28 -5 6 -8 21 -6 31 1
11 -1 27 -7 37 -8 16 -21 78 -22 107 0 6 -4 12 -9 12 -4 0 -8 9 -8 21 0 20
-35 131 -61 194 -7 17 -13 35 -14 40 -3 11 -30 72 -71 161 -13 28 -24 56 -24
62 0 7 -4 12 -8 12 -4 0 -21 27 -37 60 -17 33 -33 60 -37 60 -5 0 -8 5 -8 10
0 13 -100 164 -112 168 -4 2 -8 10 -8 17 0 8 -9 21 -21 29 -13 9 -18 19 -13
28 4 7 4 10 -1 6 -4 -4 -17 5 -29 20 -44 56 -74 89 -171 187 -55 55 -120 116
-144 135 -24 19 -51 43 -59 53 -9 9 -22 17 -29 17 -7 0 -13 3 -13 8 0 4 -18
18 -40 32 -22 14 -40 28 -40 32 0 5 -5 8 -12 8 -6 0 -20 7 -30 17 -10 9 -27
21 -37 27 -11 6 -50 29 -88 51 -78 45 -251 132 -273 137 -8 2 -17 5 -20 8 -3
3 -36 16 -75 29 -86 28 -95 31 -98 29 -1 -1 -12 4 -23 10 -20 11 -73 24 -101
25 -7 0 -13 4 -13 9 0 5 -4 6 -10 3 -5 -3 -10 -1 -10 5 0 6 -4 8 -10 5 -5 -3
-34 1 -64 9 -30 7 -57 12 -60 9 -2 -3 -11 -1 -18 3 -13 9 -19 10 -98 18 -25 2
-72 8 -105 11 -58 7 -324 13 -329 8z"/>
</g>
</svg>
